<svg width="270" height="251" viewBox="0 0 270 251" fill="none" xmlns="http://www.w3.org/2000/svg">
<path d="M8.99609 163H6.93848V154.708H2.95312V163H0.902344V153.047H8.99609V163ZM14.9532 157.75L16.7647 153.047H18.9796L15.5001 161.257L15.2198 161.797C14.7048 162.695 13.9164 163.144 12.8546 163.144L12.1368 163.116L12.1163 161.469C12.2257 161.487 12.4034 161.496 12.6495 161.496C12.9366 161.496 13.1667 161.446 13.3399 161.346C13.5177 161.245 13.6658 161.061 13.7843 160.792L14.0372 160.143L10.544 153.047H12.752L14.9532 157.75ZM28.5871 163H26.5363V158.734H22.5373V163H20.4865V153.047H22.5373V157.08H26.5363V153.047H28.5871V163ZM34.052 158.933H32.8694V163H30.8186V153.047H32.8694V157.032H33.8059L36.2395 153.047H38.7414L35.6721 157.757L39.0627 163H36.6155L34.052 158.933ZM47.7679 154.708H44.7191V163H42.6683V154.708H39.6605V153.047H47.7679V154.708ZM53.0961 157.75L54.9076 153.047H57.1225L53.643 161.257L53.3627 161.797C52.8477 162.695 52.0593 163.144 50.9975 163.144L50.2797 163.116L50.2592 161.469C50.3686 161.487 50.5463 161.496 50.7924 161.496C51.0795 161.496 51.3096 161.446 51.4828 161.346C51.6605 161.245 51.8087 161.061 51.9271 160.792L52.1801 160.143L48.6869 153.047H50.8949L53.0961 157.75ZM63.6196 160.949H60.0239L59.3403 163H57.1596L60.8647 153.047H62.7651L66.4907 163H64.31L63.6196 160.949ZM60.5776 159.288H63.0659L61.8149 155.562L60.5776 159.288ZM76.0572 153.047V163H73.9996V154.708H71.3472L71.1832 158.222C71.1148 159.407 70.9644 160.341 70.732 161.024C70.4996 161.703 70.1601 162.202 69.7134 162.521C69.2668 162.836 68.6561 162.995 67.8814 163H67.3482V161.353L67.69 161.318C68.205 161.25 68.5718 160.954 68.7906 160.43C69.0139 159.901 69.1552 158.962 69.2144 157.613L69.3853 153.047H76.0572ZM80.319 156.636H81.9186C83.0898 156.636 84.0172 156.921 84.7008 157.49C85.389 158.055 85.733 158.819 85.733 159.78C85.733 160.746 85.3913 161.523 84.7077 162.111C84.0286 162.695 83.124 162.991 81.9938 163H78.2545V153.047H80.319V156.636ZM80.319 158.29V161.353H81.9528C82.4769 161.353 82.8939 161.209 83.2038 160.922C83.5182 160.635 83.6754 160.25 83.6754 159.767C83.6754 159.315 83.525 158.96 83.2243 158.7C82.928 158.436 82.5202 158.299 82.0006 158.29H80.319ZM95.5525 163H93.5017V158.734H89.5027V163H87.4519V153.047H89.5027V157.08H93.5017V153.047H95.5525V163ZM105.946 158.249C105.946 159.229 105.773 160.088 105.427 160.826C105.08 161.564 104.583 162.134 103.936 162.535C103.294 162.936 102.555 163.137 101.721 163.137C100.897 163.137 100.161 162.938 99.5135 162.542C98.8663 162.146 98.365 161.58 98.0096 160.847C97.6541 160.108 97.4741 159.261 97.4695 158.304V157.812C97.4695 156.832 97.645 155.97 97.9959 155.228C98.3514 154.48 98.8504 153.908 99.493 153.512C100.14 153.111 100.878 152.91 101.708 152.91C102.537 152.91 103.273 153.111 103.916 153.512C104.563 153.908 105.062 154.48 105.413 155.228C105.768 155.97 105.946 156.829 105.946 157.805V158.249ZM103.868 157.798C103.868 156.754 103.681 155.961 103.307 155.419C102.934 154.877 102.401 154.605 101.708 154.605C101.02 154.605 100.489 154.874 100.115 155.412C99.7413 155.945 99.5522 156.729 99.5477 157.764V158.249C99.5477 159.265 99.7345 160.054 100.108 160.614C100.482 161.175 101.02 161.455 101.721 161.455C102.41 161.455 102.938 161.186 103.307 160.648C103.677 160.106 103.863 159.318 103.868 158.283V157.798ZM115.67 159.685C115.592 160.756 115.196 161.599 114.48 162.214C113.769 162.829 112.831 163.137 111.664 163.137C110.388 163.137 109.383 162.708 108.649 161.852C107.92 160.99 107.556 159.81 107.556 158.311V157.702C107.556 156.745 107.724 155.902 108.061 155.173C108.399 154.444 108.879 153.885 109.504 153.498C110.133 153.106 110.862 152.91 111.691 152.91C112.84 152.91 113.765 153.218 114.467 153.833C115.169 154.448 115.574 155.312 115.683 156.424H113.633C113.583 155.781 113.403 155.316 113.093 155.029C112.787 154.738 112.32 154.592 111.691 154.592C111.008 154.592 110.495 154.838 110.153 155.33C109.816 155.818 109.643 156.576 109.634 157.606V158.358C109.634 159.434 109.795 160.22 110.119 160.717C110.447 161.214 110.962 161.462 111.664 161.462C112.297 161.462 112.769 161.318 113.079 161.031C113.393 160.74 113.573 160.291 113.619 159.685H115.67ZM124.724 154.708H121.675V163H119.624V154.708H116.616V153.047H124.724V154.708ZM128.48 156.636H130.079C131.25 156.636 132.178 156.921 132.861 157.49C133.55 158.055 133.894 158.819 133.894 159.78C133.894 160.746 133.552 161.523 132.868 162.111C132.189 162.695 131.285 162.991 130.154 163H126.415V153.047H128.48V156.636ZM128.48 158.29V161.353H130.113C130.637 161.353 131.054 161.209 131.364 160.922C131.679 160.635 131.836 160.25 131.836 159.767C131.836 159.315 131.686 158.96 131.385 158.7C131.089 158.436 130.681 158.299 130.161 158.29H128.48Z" fill="#212121"/>
<path d="M6.26172 185.72C6.26172 185.191 6.06803 184.772 5.68066 184.462C5.29785 184.147 4.75781 183.99 4.06055 183.99C3.47721 183.99 2.9873 184.152 2.59082 184.476C2.19889 184.795 2.00293 185.191 2.00293 185.665H0.69043C0.69043 185.136 0.833984 184.662 1.12109 184.243C1.41276 183.824 1.81836 183.498 2.33789 183.266C2.85742 183.029 3.43164 182.91 4.06055 182.91C5.17253 182.91 6.03613 183.161 6.65137 183.662C7.2666 184.159 7.57422 184.852 7.57422 185.74C7.57422 186.201 7.43294 186.62 7.15039 186.998C6.86784 187.376 6.47363 187.675 5.96777 187.894C7.139 188.285 7.72461 189.062 7.72461 190.225C7.72461 191.118 7.39193 191.826 6.72656 192.351C6.0612 192.875 5.17253 193.137 4.06055 193.137C3.39974 193.137 2.79818 193.021 2.25586 192.788C1.7181 192.551 1.29883 192.216 0.998047 191.783C0.697266 191.35 0.546875 190.835 0.546875 190.238H1.85938C1.85938 190.762 2.06673 191.2 2.48145 191.551C2.89616 191.897 3.42253 192.07 4.06055 192.07C4.77604 192.07 5.3457 191.904 5.76953 191.571C6.19792 191.239 6.41211 190.799 6.41211 190.252C6.41211 189.085 5.68978 188.491 4.24512 188.468H3.01465V187.388H4.23828C4.90365 187.374 5.40723 187.224 5.74902 186.937C6.09082 186.649 6.26172 186.244 6.26172 185.72ZM14.2559 193C14.183 192.854 14.1238 192.594 14.0782 192.221C13.4903 192.831 12.7885 193.137 11.9727 193.137C11.2436 193.137 10.6443 192.932 10.1749 192.521C9.71004 192.107 9.47762 191.583 9.47762 190.949C9.47762 190.179 9.76928 189.582 10.3526 189.158C10.9405 188.73 11.7654 188.516 12.8272 188.516H14.0577V187.935C14.0577 187.493 13.9255 187.142 13.6612 186.882C13.3969 186.618 13.0072 186.485 12.4923 186.485C12.0411 186.485 11.6628 186.599 11.3575 186.827C11.0522 187.055 10.8995 187.331 10.8995 187.654H9.62801C9.62801 187.285 9.75789 186.93 10.0177 186.588C10.282 186.242 10.6374 185.968 11.0841 185.768C11.5352 185.567 12.0297 185.467 12.5675 185.467C13.4197 185.467 14.0873 185.681 14.5704 186.109C15.0535 186.533 15.3041 187.119 15.3223 187.866V191.271C15.3223 191.95 15.4089 192.49 15.5821 192.891V193H14.2559ZM12.1573 192.036C12.5538 192.036 12.9298 191.934 13.2852 191.729C13.6407 191.523 13.8982 191.257 14.0577 190.929V189.411H13.0665C11.517 189.411 10.7423 189.865 10.7423 190.771C10.7423 191.168 10.8744 191.478 11.1388 191.701C11.4031 191.924 11.7426 192.036 12.1573 192.036ZM17.6632 191.968L18.1007 191.428C18.5929 190.79 18.8732 189.833 18.9416 188.557L19.0578 185.604H23.8224V191.968H24.7726V195.174H23.508V193H18.3468V195.174H17.0822L17.089 191.968H17.6632ZM19.1603 191.968H22.5578V186.772H20.2814L20.2062 188.536C20.1287 190.008 19.7801 191.152 19.1603 191.968ZM31.1604 193C31.0875 192.854 31.0282 192.594 30.9827 192.221C30.3948 192.831 29.6929 193.137 28.8772 193.137C28.148 193.137 27.5487 192.932 27.0793 192.521C26.6145 192.107 26.3821 191.583 26.3821 190.949C26.3821 190.179 26.6737 189.582 27.2571 189.158C27.845 188.73 28.6698 188.516 29.7317 188.516H30.9621V187.935C30.9621 187.493 30.83 187.142 30.5657 186.882C30.3013 186.618 29.9117 186.485 29.3967 186.485C28.9455 186.485 28.5673 186.599 28.262 186.827C27.9566 187.055 27.8039 187.331 27.8039 187.654H26.5325C26.5325 187.285 26.6623 186.93 26.9221 186.588C27.1864 186.242 27.5419 185.968 27.9885 185.768C28.4397 185.567 28.9342 185.467 29.4719 185.467C30.3241 185.467 30.9918 185.681 31.4748 186.109C31.9579 186.533 32.2086 187.119 32.2268 187.866V191.271C32.2268 191.95 32.3134 192.49 32.4866 192.891V193H31.1604ZM29.0618 192.036C29.4582 192.036 29.8342 191.934 30.1897 191.729C30.5452 191.523 30.8026 191.257 30.9621 190.929V189.411H29.9709C28.4215 189.411 27.6467 189.865 27.6467 190.771C27.6467 191.168 27.7789 191.478 28.0432 191.701C28.3075 191.924 28.647 192.036 29.0618 192.036ZM40.2142 193H38.9427V190.32C38.3867 190.466 37.817 190.539 37.2337 190.539C36.3086 190.539 35.6022 190.302 35.1146 189.828C34.6315 189.354 34.3854 188.68 34.3763 187.805V185.597H35.6409V187.846C35.6637 188.949 36.1946 189.5 37.2337 189.5C37.817 189.5 38.3867 189.427 38.9427 189.281V185.604H40.2142V193ZM47.2309 193C47.1579 192.854 47.0987 192.594 47.0531 192.221C46.4652 192.831 45.7634 193.137 44.9477 193.137C44.2185 193.137 43.6192 192.932 43.1498 192.521C42.685 192.107 42.4525 191.583 42.4525 190.949C42.4525 190.179 42.7442 189.582 43.3275 189.158C43.9154 188.73 44.7403 188.516 45.8021 188.516H47.0326V187.935C47.0326 187.493 46.9005 187.142 46.6361 186.882C46.3718 186.618 45.9822 186.485 45.4672 186.485C45.016 186.485 44.6378 186.599 44.3324 186.827C44.0271 187.055 43.8744 187.331 43.8744 187.654H42.6029C42.6029 187.285 42.7328 186.93 42.9926 186.588C43.2569 186.242 43.6124 185.968 44.059 185.768C44.5102 185.567 45.0046 185.467 45.5424 185.467C46.3946 185.467 47.0622 185.681 47.5453 186.109C48.0284 186.533 48.279 187.119 48.2973 187.866V191.271C48.2973 191.95 48.3839 192.49 48.557 192.891V193H47.2309ZM45.1322 192.036C45.5287 192.036 45.9047 191.934 46.2602 191.729C46.6156 191.523 46.8731 191.257 47.0326 190.929V189.411H46.0414C44.4919 189.411 43.7172 189.865 43.7172 190.771C43.7172 191.168 43.8493 191.478 44.1137 191.701C44.378 191.924 44.7175 192.036 45.1322 192.036ZM54.2574 189.233C54.2574 188.509 54.3987 187.857 54.6812 187.278C54.9683 186.7 55.3648 186.253 55.8707 185.938C56.3811 185.624 56.9621 185.467 57.6138 185.467C58.621 185.467 59.4345 185.815 60.0543 186.513C60.6786 187.21 60.9908 188.137 60.9908 189.295V189.384C60.9908 190.104 60.8518 190.751 60.5738 191.325C60.3004 191.895 59.9061 192.339 59.3912 192.658C58.8808 192.977 58.2929 193.137 57.6275 193.137C56.6249 193.137 55.8114 192.788 55.1871 192.091C54.5673 191.394 54.2574 190.471 54.2574 189.322V189.233ZM55.5289 189.384C55.5289 190.204 55.718 190.863 56.0962 191.359C56.4791 191.856 56.9895 192.104 57.6275 192.104C58.2701 192.104 58.7805 191.854 59.1587 191.353C59.537 190.847 59.7261 190.14 59.7261 189.233C59.7261 188.422 59.5324 187.766 59.1451 187.265C58.7623 186.759 58.2518 186.506 57.6138 186.506C56.9895 186.506 56.4859 186.754 56.1031 187.251C55.7203 187.748 55.5289 188.459 55.5289 189.384ZM69.2448 189.384C69.2448 190.509 68.9873 191.416 68.4723 192.104C67.9573 192.793 67.2601 193.137 66.3805 193.137C65.4827 193.137 64.7763 192.852 64.2614 192.282V195.844H62.9967V185.604H64.152L64.2135 186.424C64.7285 185.786 65.444 185.467 66.36 185.467C67.2487 185.467 67.9505 185.802 68.4655 186.472C68.985 187.142 69.2448 188.074 69.2448 189.268V189.384ZM67.9801 189.24C67.9801 188.406 67.8024 187.748 67.4469 187.265C67.0914 186.782 66.6038 186.54 65.984 186.54C65.2184 186.54 64.6442 186.88 64.2614 187.559V191.093C64.6396 191.767 65.2184 192.104 65.9977 192.104C66.6038 192.104 67.0846 191.865 67.4401 191.387C67.8001 190.904 67.9801 190.188 67.9801 189.24ZM76.0564 186.649H72.6452V193H71.3737V185.604H76.0564V186.649ZM82.1434 193C82.0704 192.854 82.0112 192.594 81.9656 192.221C81.3777 192.831 80.6759 193.137 79.8602 193.137C79.131 193.137 78.5317 192.932 78.0623 192.521C77.5975 192.107 77.365 191.583 77.365 190.949C77.365 190.179 77.6567 189.582 78.24 189.158C78.8279 188.73 79.6528 188.516 80.7146 188.516H81.9451V187.935C81.9451 187.493 81.813 187.142 81.5486 186.882C81.2843 186.618 80.8947 186.485 80.3797 186.485C79.9285 186.485 79.5503 186.599 79.2449 186.827C78.9396 187.055 78.7869 187.331 78.7869 187.654H77.5154C77.5154 187.285 77.6453 186.93 77.9051 186.588C78.1694 186.242 78.5249 185.968 78.9715 185.768C79.4227 185.567 79.9171 185.467 80.4549 185.467C81.3071 185.467 81.9747 185.681 82.4578 186.109C82.9409 186.533 83.1915 187.119 83.2098 187.866V191.271C83.2098 191.95 83.2964 192.49 83.4695 192.891V193H82.1434ZM80.0447 192.036C80.4412 192.036 80.8172 191.934 81.1727 191.729C81.5281 191.523 81.7856 191.257 81.9451 190.929V189.411H80.9539C79.4044 189.411 78.6297 189.865 78.6297 190.771C78.6297 191.168 78.7618 191.478 79.0262 191.701C79.2905 191.924 79.63 192.036 80.0447 192.036ZM91.6552 193H90.3905V189.842H86.993V193H85.7216V185.604H86.993V188.81H90.3905V185.604H91.6552V193ZM98.8974 185.604H100.162V193H98.8974V187.606L95.4863 193H94.2216V185.604H95.4863V191.004L98.8974 185.604ZM106.68 187.627C106.68 187.281 106.548 187.007 106.283 186.807C106.019 186.602 105.657 186.499 105.196 186.499C104.75 186.499 104.376 186.615 104.075 186.848C103.779 187.08 103.631 187.354 103.631 187.668H102.373C102.373 187.025 102.642 186.499 103.18 186.089C103.717 185.679 104.39 185.474 105.196 185.474C106.062 185.474 106.737 185.66 107.22 186.034C107.703 186.403 107.944 186.932 107.944 187.62C107.944 187.953 107.844 188.258 107.644 188.536C107.443 188.814 107.158 189.035 106.789 189.199C107.65 189.491 108.081 190.065 108.081 190.922C108.081 191.601 107.819 192.139 107.295 192.535C106.771 192.932 106.071 193.13 105.196 193.13C104.344 193.13 103.64 192.923 103.084 192.508C102.533 192.089 102.257 191.523 102.257 190.812H103.515C103.515 191.173 103.674 191.482 103.993 191.742C104.317 191.997 104.718 192.125 105.196 192.125C105.679 192.125 106.069 192.013 106.365 191.79C106.661 191.567 106.81 191.277 106.81 190.922C106.81 190.507 106.684 190.211 106.434 190.033C106.188 189.851 105.802 189.76 105.278 189.76H104.014V188.693H105.388C106.249 188.671 106.68 188.315 106.68 187.627ZM114.708 193C114.635 192.854 114.576 192.594 114.53 192.221C113.942 192.831 113.241 193.137 112.425 193.137C111.696 193.137 111.096 192.932 110.627 192.521C110.162 192.107 109.93 191.583 109.93 190.949C109.93 190.179 110.221 189.582 110.805 189.158C111.393 188.73 112.218 188.516 113.279 188.516H114.51V187.935C114.51 187.493 114.378 187.142 114.113 186.882C113.849 186.618 113.459 186.485 112.944 186.485C112.493 186.485 112.115 186.599 111.81 186.827C111.504 187.055 111.352 187.331 111.352 187.654H110.08C110.08 187.285 110.21 186.93 110.47 186.588C110.734 186.242 111.09 185.968 111.536 185.768C111.987 185.567 112.482 185.467 113.02 185.467C113.872 185.467 114.54 185.681 115.023 186.109C115.506 186.533 115.756 187.119 115.775 187.866V191.271C115.775 191.95 115.861 192.49 116.034 192.891V193H114.708ZM112.609 192.036C113.006 192.036 113.382 191.934 113.737 191.729C114.093 191.523 114.35 191.257 114.51 190.929V189.411H113.519C111.969 189.411 111.194 189.865 111.194 190.771C111.194 191.168 111.327 191.478 111.591 191.701C111.855 191.924 112.195 192.036 112.609 192.036ZM118.286 185.604H119.558V191.968H122.962V185.604H124.227V191.968H125.109L124.986 195.194H123.851V193H118.286V185.604ZM131.681 185.604H132.946V193H131.681V187.606L128.27 193H127.005V185.604H128.27V191.004L131.681 185.604ZM140.181 185.604H141.446V193H140.181V187.606L136.77 193H135.505V185.604H136.77V191.004L140.181 185.604ZM143.855 194.982L143.137 194.49C143.566 193.893 143.789 193.278 143.807 192.645V191.503H145.044V192.494C145.044 192.954 144.93 193.415 144.703 193.875C144.479 194.335 144.197 194.704 143.855 194.982ZM151.073 193V185.604H153.958C154.942 185.604 155.696 185.777 156.22 186.123C156.749 186.465 157.013 186.968 157.013 187.634C157.013 187.976 156.911 188.285 156.706 188.563C156.501 188.837 156.198 189.047 155.796 189.192C156.243 189.297 156.601 189.502 156.87 189.808C157.143 190.113 157.28 190.478 157.28 190.901C157.28 191.58 157.029 192.1 156.528 192.46C156.031 192.82 155.327 193 154.416 193H151.073ZM152.337 189.753V191.981H154.429C154.958 191.981 155.352 191.883 155.612 191.688C155.876 191.492 156.008 191.216 156.008 190.86C156.008 190.122 155.466 189.753 154.381 189.753H152.337ZM152.337 188.741H153.971C155.156 188.741 155.749 188.395 155.749 187.702C155.749 187.009 155.188 186.652 154.067 186.629H152.337V188.741ZM162.932 189.233C162.932 188.509 163.074 187.857 163.356 187.278C163.643 186.7 164.04 186.253 164.546 185.938C165.056 185.624 165.637 185.467 166.289 185.467C167.296 185.467 168.109 185.815 168.729 186.513C169.354 187.21 169.666 188.137 169.666 189.295V189.384C169.666 190.104 169.527 190.751 169.249 191.325C168.975 191.895 168.581 192.339 168.066 192.658C167.556 192.977 166.968 193.137 166.303 193.137C165.3 193.137 164.486 192.788 163.862 192.091C163.242 191.394 162.932 190.471 162.932 189.322V189.233ZM164.204 189.384C164.204 190.204 164.393 190.863 164.771 191.359C165.154 191.856 165.664 192.104 166.303 192.104C166.945 192.104 167.456 191.854 167.834 191.353C168.212 190.847 168.401 190.14 168.401 189.233C168.401 188.422 168.207 187.766 167.82 187.265C167.437 186.759 166.927 186.506 166.289 186.506C165.664 186.506 165.161 186.754 164.778 187.251C164.395 187.748 164.204 188.459 164.204 189.384ZM174.639 192.104C175.09 192.104 175.484 191.968 175.821 191.694C176.158 191.421 176.345 191.079 176.382 190.669H177.578C177.555 191.093 177.409 191.496 177.14 191.879C176.872 192.262 176.512 192.567 176.06 192.795C175.614 193.023 175.14 193.137 174.639 193.137C173.631 193.137 172.829 192.802 172.232 192.132C171.64 191.457 171.344 190.537 171.344 189.37V189.158C171.344 188.438 171.476 187.798 171.74 187.237C172.004 186.677 172.383 186.242 172.875 185.932C173.372 185.622 173.957 185.467 174.632 185.467C175.461 185.467 176.149 185.715 176.696 186.212C177.248 186.709 177.542 187.354 177.578 188.146H176.382C176.345 187.668 176.163 187.276 175.835 186.971C175.511 186.661 175.11 186.506 174.632 186.506C173.989 186.506 173.49 186.738 173.135 187.203C172.784 187.663 172.608 188.331 172.608 189.206V189.445C172.608 190.298 172.784 190.954 173.135 191.414C173.486 191.874 173.987 192.104 174.639 192.104ZM179.085 189.233C179.085 188.509 179.226 187.857 179.509 187.278C179.796 186.7 180.192 186.253 180.698 185.938C181.209 185.624 181.79 185.467 182.441 185.467C183.448 185.467 184.262 185.815 184.882 186.513C185.506 187.21 185.818 188.137 185.818 189.295V189.384C185.818 190.104 185.679 190.751 185.401 191.325C185.128 191.895 184.734 192.339 184.219 192.658C183.708 192.977 183.12 193.137 182.455 193.137C181.452 193.137 180.639 192.788 180.015 192.091C179.395 191.394 179.085 190.471 179.085 189.322V189.233ZM180.356 189.384C180.356 190.204 180.545 190.863 180.924 191.359C181.307 191.856 181.817 192.104 182.455 192.104C183.098 192.104 183.608 191.854 183.986 191.353C184.365 190.847 184.554 190.14 184.554 189.233C184.554 188.422 184.36 187.766 183.973 187.265C183.59 186.759 183.079 186.506 182.441 186.506C181.817 186.506 181.313 186.754 180.931 187.251C180.548 187.748 180.356 188.459 180.356 189.384ZM191.071 186.027C192.001 186.027 192.744 186.34 193.3 186.964C193.86 187.584 194.141 188.402 194.141 189.418V189.534C194.141 190.231 194.006 190.856 193.737 191.407C193.468 191.954 193.081 192.38 192.575 192.686C192.074 192.986 191.495 193.137 190.839 193.137C189.845 193.137 189.046 192.806 188.439 192.146C187.833 191.48 187.53 190.589 187.53 189.473V188.857C187.53 187.303 187.817 186.068 188.392 185.152C188.97 184.236 189.823 183.678 190.948 183.478C191.586 183.364 192.017 183.225 192.24 183.061C192.464 182.896 192.575 182.671 192.575 182.384H193.614C193.614 182.953 193.484 183.398 193.225 183.717C192.969 184.036 192.559 184.261 191.994 184.394L191.051 184.605C190.299 184.783 189.734 185.084 189.355 185.508C188.982 185.927 188.738 186.488 188.624 187.189C189.294 186.415 190.11 186.027 191.071 186.027ZM190.825 187.066C190.205 187.066 189.713 187.276 189.349 187.695C188.984 188.11 188.802 188.687 188.802 189.425V189.534C188.802 190.327 188.984 190.956 189.349 191.421C189.718 191.881 190.215 192.111 190.839 192.111C191.468 192.111 191.965 191.879 192.329 191.414C192.694 190.949 192.876 190.27 192.876 189.377C192.876 188.68 192.691 188.121 192.322 187.702C191.958 187.278 191.459 187.066 190.825 187.066ZM199.052 193.137C198.049 193.137 197.233 192.809 196.605 192.152C195.976 191.492 195.661 190.61 195.661 189.507V189.274C195.661 188.541 195.8 187.887 196.078 187.312C196.361 186.734 196.753 186.283 197.254 185.959C197.76 185.631 198.307 185.467 198.895 185.467C199.856 185.467 200.604 185.784 201.137 186.417C201.67 187.05 201.937 187.957 201.937 189.138V189.664H196.926C196.944 190.393 197.156 190.983 197.562 191.435C197.972 191.881 198.491 192.104 199.12 192.104C199.567 192.104 199.945 192.013 200.255 191.831C200.565 191.649 200.836 191.407 201.068 191.106L201.841 191.708C201.221 192.66 200.291 193.137 199.052 193.137ZM198.895 186.506C198.384 186.506 197.956 186.693 197.609 187.066C197.263 187.436 197.049 187.955 196.967 188.625H200.672V188.529C200.635 187.887 200.462 187.39 200.152 187.039C199.843 186.684 199.423 186.506 198.895 186.506ZM209.869 193H208.605V189.842H205.207V193H203.936V185.604H205.207V188.81H208.605V185.604H209.869V193ZM218.369 193H217.105V189.842H213.707V193H212.436V185.604H213.707V188.81H217.105V185.604H218.369V193ZM220.492 189.233C220.492 188.509 220.633 187.857 220.915 187.278C221.202 186.7 221.599 186.253 222.105 185.938C222.615 185.624 223.196 185.467 223.848 185.467C224.855 185.467 225.669 185.815 226.288 186.513C226.913 187.21 227.225 188.137 227.225 189.295V189.384C227.225 190.104 227.086 190.751 226.808 191.325C226.534 191.895 226.14 192.339 225.625 192.658C225.115 192.977 224.527 193.137 223.862 193.137C222.859 193.137 222.046 192.788 221.421 192.091C220.801 191.394 220.492 190.471 220.492 189.322V189.233ZM221.763 189.384C221.763 190.204 221.952 190.863 222.33 191.359C222.713 191.856 223.224 192.104 223.862 192.104C224.504 192.104 225.015 191.854 225.393 191.353C225.771 190.847 225.96 190.14 225.96 189.233C225.96 188.422 225.767 187.766 225.379 187.265C224.996 186.759 224.486 186.506 223.848 186.506C223.224 186.506 222.72 186.754 222.337 187.251C221.954 187.748 221.763 188.459 221.763 189.384ZM232.198 192.104C232.649 192.104 233.043 191.968 233.38 191.694C233.718 191.421 233.904 191.079 233.941 190.669H235.137C235.114 191.093 234.968 191.496 234.7 191.879C234.431 192.262 234.071 192.567 233.62 192.795C233.173 193.023 232.699 193.137 232.198 193.137C231.191 193.137 230.388 192.802 229.791 192.132C229.199 191.457 228.903 190.537 228.903 189.37V189.158C228.903 188.438 229.035 187.798 229.299 187.237C229.564 186.677 229.942 186.242 230.434 185.932C230.931 185.622 231.516 185.467 232.191 185.467C233.02 185.467 233.708 185.715 234.255 186.212C234.807 186.709 235.101 187.354 235.137 188.146H233.941C233.904 187.668 233.722 187.276 233.394 186.971C233.07 186.661 232.669 186.506 232.191 186.506C231.548 186.506 231.049 186.738 230.694 187.203C230.343 187.663 230.167 188.331 230.167 189.206V189.445C230.167 190.298 230.343 190.954 230.694 191.414C231.045 191.874 231.546 192.104 232.198 192.104ZM242.475 186.629H239.994V193H238.729V186.629H236.295V185.604H242.475V186.629ZM248.911 185.604H250.175V193H248.911V187.606L245.5 193H244.235V185.604H245.5V191.004L248.911 185.604ZM6.85645 213.787H5.96777V217H4.70312V213.787H3.81445L1.74316 217H0.143555L2.78906 213.172L0.396484 209.604H1.92773L3.83496 212.666H4.70312V209.604H5.96777V212.666H6.8291L8.75 209.604H10.2812L7.88184 213.179L10.5273 217H8.92773L6.85645 213.787ZM15.0284 217.137C14.0258 217.137 13.21 216.809 12.5811 216.152C11.9522 215.492 11.6378 214.61 11.6378 213.507V213.274C11.6378 212.541 11.7768 211.887 12.0548 211.312C12.3373 210.734 12.7292 210.283 13.2305 209.959C13.7364 209.631 14.2833 209.467 14.8712 209.467C15.8328 209.467 16.5802 209.784 17.1134 210.417C17.6466 211.05 17.9132 211.957 17.9132 213.138V213.664H12.9024C12.9207 214.393 13.1326 214.983 13.5382 215.435C13.9483 215.881 14.4679 216.104 15.0968 216.104C15.5434 216.104 15.9216 216.013 16.2315 215.831C16.5414 215.649 16.8126 215.407 17.045 215.106L17.8175 215.708C17.1977 216.66 16.268 217.137 15.0284 217.137ZM14.8712 210.506C14.3608 210.506 13.9324 210.693 13.586 211.066C13.2397 211.436 13.0255 211.955 12.9434 212.625H16.6485V212.529C16.6121 211.887 16.4389 211.39 16.129 211.039C15.8191 210.684 15.3998 210.506 14.8712 210.506ZM29.9436 213.384C29.9436 214.509 29.6861 215.416 29.1711 216.104C28.6562 216.793 27.9589 217.137 27.0793 217.137C26.1815 217.137 25.4752 216.852 24.9602 216.282V219.844H23.6955V209.604H24.8508L24.9123 210.424C25.4273 209.786 26.1428 209.467 27.0588 209.467C27.9475 209.467 28.6493 209.802 29.1643 210.472C29.6838 211.142 29.9436 212.074 29.9436 213.268V213.384ZM28.6789 213.24C28.6789 212.406 28.5012 211.748 28.1457 211.265C27.7903 210.782 27.3026 210.54 26.6829 210.54C25.9172 210.54 25.343 210.88 24.9602 211.559V215.093C25.3385 215.767 25.9172 216.104 26.6965 216.104C27.3026 216.104 27.7834 215.865 28.1389 215.387C28.4989 214.904 28.6789 214.188 28.6789 213.24ZM36.5433 217C36.4704 216.854 36.4111 216.594 36.3655 216.221C35.7777 216.831 35.0758 217.137 34.2601 217.137C33.5309 217.137 32.9316 216.932 32.4622 216.521C31.9974 216.107 31.765 215.583 31.765 214.949C31.765 214.179 32.0566 213.582 32.64 213.158C33.2279 212.73 34.0527 212.516 35.1146 212.516H36.345V211.935C36.345 211.493 36.2129 211.142 35.9486 210.882C35.6842 210.618 35.2946 210.485 34.7796 210.485C34.3284 210.485 33.9502 210.599 33.6448 210.827C33.3395 211.055 33.1868 211.331 33.1868 211.654H31.9154C31.9154 211.285 32.0452 210.93 32.305 210.588C32.5693 210.242 32.9248 209.968 33.3714 209.768C33.8226 209.567 34.317 209.467 34.8548 209.467C35.707 209.467 36.3747 209.681 36.8577 210.109C37.3408 210.533 37.5915 211.119 37.6097 211.866V215.271C37.6097 215.95 37.6963 216.49 37.8695 216.891V217H36.5433ZM34.4446 216.036C34.8411 216.036 35.2171 215.934 35.5726 215.729C35.928 215.523 36.1855 215.257 36.345 214.929V213.411H35.3538C33.8043 213.411 33.0296 213.865 33.0296 214.771C33.0296 215.168 33.1618 215.478 33.4261 215.701C33.6904 215.924 34.0299 216.036 34.4446 216.036ZM44.2709 215.325L46.7865 209.604H48.3656V217H47.101V211.62L44.7084 217H43.8334L41.393 211.504V217H40.1283V209.604H41.7689L44.2709 215.325ZM53.1264 213.849H52.2036V217H50.9321V209.604H52.2036V212.734H53.0307L55.519 209.604H57.0503L54.1245 213.158L57.2964 217H55.6899L53.1264 213.849ZM63.5884 209.604H64.8531V217H63.5884V211.606L60.1773 217H58.9127V209.604H60.1773V215.004L63.5884 209.604ZM75.9812 209.604H77.2458V217H75.9812V211.606L72.57 217H71.3054V209.604H72.57V215.004L75.9812 209.604ZM87.8475 215.325L90.3632 209.604H91.9423V217H90.6776V211.62L88.285 217H87.41L84.9696 211.504V217H83.705V209.604H85.3456L87.8475 215.325ZM97.4687 217.137C96.4661 217.137 95.6504 216.809 95.0214 216.152C94.3925 215.492 94.0781 214.61 94.0781 213.507V213.274C94.0781 212.541 94.2171 211.887 94.4951 211.312C94.7776 210.734 95.1696 210.283 95.6709 209.959C96.1767 209.631 96.7236 209.467 97.3115 209.467C98.2731 209.467 99.0205 209.784 99.5537 210.417C100.087 211.05 100.353 211.957 100.353 213.138V213.664H95.3427C95.361 214.393 95.5729 214.983 95.9785 215.435C96.3886 215.881 96.9082 216.104 97.5371 216.104C97.9837 216.104 98.3619 216.013 98.6718 215.831C98.9817 215.649 99.2529 215.407 99.4853 215.106L100.258 215.708C99.638 216.66 98.7083 217.137 97.4687 217.137ZM97.3115 210.506C96.8011 210.506 96.3727 210.693 96.0263 211.066C95.68 211.436 95.4658 211.955 95.3838 212.625H99.0888V212.529C99.0524 211.887 98.8792 211.39 98.5693 211.039C98.2594 210.684 97.8401 210.506 97.3115 210.506ZM105.21 216.104C105.661 216.104 106.055 215.968 106.393 215.694C106.73 215.421 106.917 215.079 106.953 214.669H108.149C108.127 215.093 107.981 215.496 107.712 215.879C107.443 216.262 107.083 216.567 106.632 216.795C106.185 217.023 105.711 217.137 105.21 217.137C104.203 217.137 103.401 216.802 102.804 216.132C102.211 215.457 101.915 214.537 101.915 213.37V213.158C101.915 212.438 102.047 211.798 102.312 211.237C102.576 210.677 102.954 210.242 103.446 209.932C103.943 209.622 104.529 209.467 105.203 209.467C106.033 209.467 106.721 209.715 107.268 210.212C107.819 210.709 108.113 211.354 108.149 212.146H106.953C106.917 211.668 106.734 211.276 106.406 210.971C106.083 210.661 105.682 210.506 105.203 210.506C104.561 210.506 104.062 210.738 103.706 211.203C103.355 211.663 103.18 212.331 103.18 213.206V213.445C103.18 214.298 103.355 214.954 103.706 215.414C104.057 215.874 104.558 216.104 105.21 216.104ZM115.487 210.629H113.006V217H111.741V210.629H109.308V209.604H115.487V210.629ZM116.516 213.233C116.516 212.509 116.657 211.857 116.94 211.278C117.227 210.7 117.623 210.253 118.129 209.938C118.64 209.624 119.221 209.467 119.872 209.467C120.879 209.467 121.693 209.815 122.313 210.513C122.937 211.21 123.249 212.137 123.249 213.295V213.384C123.249 214.104 123.11 214.751 122.832 215.325C122.559 215.895 122.165 216.339 121.65 216.658C121.139 216.977 120.551 217.137 119.886 217.137C118.883 217.137 118.07 216.788 117.446 216.091C116.826 215.394 116.516 214.471 116.516 213.322V213.233ZM117.787 213.384C117.787 214.204 117.976 214.863 118.355 215.359C118.738 215.856 119.248 216.104 119.886 216.104C120.529 216.104 121.039 215.854 121.417 215.353C121.795 214.847 121.985 214.14 121.985 213.233C121.985 212.422 121.791 211.766 121.404 211.265C121.021 210.759 120.51 210.506 119.872 210.506C119.248 210.506 118.744 210.754 118.362 211.251C117.979 211.748 117.787 212.459 117.787 213.384ZM128.813 213.233C128.813 212.509 128.954 211.857 129.237 211.278C129.524 210.7 129.92 210.253 130.426 209.938C130.937 209.624 131.518 209.467 132.169 209.467C133.176 209.467 133.99 209.815 134.61 210.513C135.234 211.21 135.546 212.137 135.546 213.295V213.384C135.546 214.104 135.407 214.751 135.129 215.325C134.856 215.895 134.462 216.339 133.947 216.658C133.436 216.977 132.848 217.137 132.183 217.137C131.18 217.137 130.367 216.788 129.743 216.091C129.123 215.394 128.813 214.471 128.813 213.322V213.233ZM130.084 213.384C130.084 214.204 130.273 214.863 130.652 215.359C131.035 215.856 131.545 216.104 132.183 216.104C132.826 216.104 133.336 215.854 133.714 215.353C134.092 214.847 134.282 214.14 134.282 213.233C134.282 212.422 134.088 211.766 133.701 211.265C133.318 210.759 132.807 210.506 132.169 210.506C131.545 210.506 131.041 210.754 130.659 211.251C130.276 211.748 130.084 212.459 130.084 213.384ZM140.799 210.027C141.729 210.027 142.472 210.34 143.028 210.964C143.588 211.584 143.869 212.402 143.869 213.418V213.534C143.869 214.231 143.734 214.856 143.465 215.407C143.196 215.954 142.809 216.38 142.303 216.686C141.802 216.986 141.223 217.137 140.567 217.137C139.573 217.137 138.774 216.806 138.167 216.146C137.561 215.48 137.258 214.589 137.258 213.473V212.857C137.258 211.303 137.545 210.068 138.12 209.152C138.698 208.236 139.551 207.678 140.676 207.478C141.314 207.364 141.745 207.225 141.968 207.061C142.192 206.896 142.303 206.671 142.303 206.384H143.342C143.342 206.953 143.212 207.398 142.953 207.717C142.697 208.036 142.287 208.261 141.722 208.394L140.779 208.605C140.027 208.783 139.462 209.084 139.083 209.508C138.71 209.927 138.466 210.488 138.352 211.189C139.022 210.415 139.838 210.027 140.799 210.027ZM140.553 211.066C139.933 211.066 139.441 211.276 139.077 211.695C138.712 212.11 138.53 212.687 138.53 213.425V213.534C138.53 214.327 138.712 214.956 139.077 215.421C139.446 215.881 139.942 216.111 140.567 216.111C141.196 216.111 141.692 215.879 142.057 215.414C142.422 214.949 142.604 214.27 142.604 213.377C142.604 212.68 142.419 212.121 142.05 211.702C141.686 211.278 141.187 211.066 140.553 211.066ZM148.13 215.147L149.853 209.604H151.207L148.233 218.142C147.773 219.372 147.041 219.987 146.039 219.987L145.799 219.967L145.328 219.878V218.853L145.669 218.88C146.098 218.88 146.431 218.793 146.667 218.62C146.909 218.447 147.107 218.13 147.262 217.67L147.542 216.918L144.904 209.604H146.285L148.13 215.147ZM158.346 217H157.075V214.32C156.519 214.466 155.949 214.539 155.366 214.539C154.441 214.539 153.734 214.302 153.247 213.828C152.764 213.354 152.518 212.68 152.508 211.805V209.597H153.773V211.846C153.796 212.949 154.327 213.5 155.366 213.5C155.949 213.5 156.519 213.427 157.075 213.281V209.604H158.346V217ZM163.866 217.137C162.863 217.137 162.048 216.809 161.419 216.152C160.79 215.492 160.475 214.61 160.475 213.507V213.274C160.475 212.541 160.614 211.887 160.892 211.312C161.175 210.734 161.567 210.283 162.068 209.959C162.574 209.631 163.121 209.467 163.709 209.467C164.67 209.467 165.418 209.784 165.951 210.417C166.484 211.05 166.751 211.957 166.751 213.138V213.664H161.74C161.758 214.393 161.97 214.983 162.376 215.435C162.786 215.881 163.305 216.104 163.934 216.104C164.381 216.104 164.759 216.013 165.069 215.831C165.379 215.649 165.65 215.407 165.883 215.106L166.655 215.708C166.035 216.66 165.105 217.137 163.866 217.137ZM163.709 210.506C163.198 210.506 162.77 210.693 162.424 211.066C162.077 211.436 161.863 211.955 161.781 212.625H165.486V212.529C165.45 211.887 165.276 211.39 164.966 211.039C164.657 210.684 164.237 210.506 163.709 210.506ZM174.683 217H173.419V213.842H170.021V217H168.75V209.604H170.021V212.81H173.419V209.604H174.683V217ZM181.926 209.604H183.19V217H181.926V211.606L178.514 217H177.25V209.604H178.514V215.004L181.926 209.604ZM191.294 209.604V217H190.022V214.122H188.115L186.372 217H185.005L186.864 213.931C186.39 213.757 186.026 213.491 185.77 213.131C185.52 212.766 185.394 212.342 185.394 211.859C185.394 211.185 185.647 210.643 186.153 210.232C186.659 209.818 187.336 209.608 188.184 209.604H191.294ZM186.666 211.873C186.666 212.233 186.789 212.525 187.035 212.748C187.281 212.967 187.607 213.078 188.013 213.083H190.022V210.629H188.204C187.735 210.629 187.361 210.745 187.083 210.978C186.805 211.205 186.666 211.504 186.666 211.873ZM199.941 213.849H199.018V217H197.746V209.604H199.018V212.734H199.845L202.333 209.604H203.864L200.939 213.158L204.11 217H202.504L199.941 213.849ZM210.184 217C210.111 216.854 210.052 216.594 210.006 216.221C209.418 216.831 208.716 217.137 207.901 217.137C207.171 217.137 206.572 216.932 206.103 216.521C205.638 216.107 205.405 215.583 205.405 214.949C205.405 214.179 205.697 213.582 206.28 213.158C206.868 212.73 207.693 212.516 208.755 212.516H209.986V211.935C209.986 211.493 209.853 211.142 209.589 210.882C209.325 210.618 208.935 210.485 208.42 210.485C207.969 210.485 207.591 210.599 207.285 210.827C206.98 211.055 206.827 211.331 206.827 211.654H205.556C205.556 211.285 205.686 210.93 205.945 210.588C206.21 210.242 206.565 209.968 207.012 209.768C207.463 209.567 207.958 209.467 208.495 209.467C209.347 209.467 210.015 209.681 210.498 210.109C210.981 210.533 211.232 211.119 211.25 211.866V215.271C211.25 215.95 211.337 216.49 211.51 216.891V217H210.184ZM208.085 216.036C208.482 216.036 208.858 215.934 209.213 215.729C209.569 215.523 209.826 215.257 209.986 214.929V213.411H208.994C207.445 213.411 206.67 213.865 206.67 214.771C206.67 215.168 206.802 215.478 207.067 215.701C207.331 215.924 207.67 216.036 208.085 216.036ZM213.591 215.968L214.029 215.428C214.521 214.79 214.801 213.833 214.869 212.557L214.986 209.604H219.75V215.968H220.7V219.174H219.436V217H214.275V219.174H213.01L213.017 215.968H213.591ZM215.088 215.968H218.486V210.772H216.209L216.134 212.536C216.057 214.008 215.708 215.152 215.088 215.968ZM228.77 213.384C228.77 214.509 228.512 215.416 227.997 216.104C227.482 216.793 226.785 217.137 225.906 217.137C225.008 217.137 224.301 216.852 223.786 216.282V219.844H222.522V209.604H223.677L223.739 210.424C224.254 209.786 224.969 209.467 225.885 209.467C226.774 209.467 227.476 209.802 227.991 210.472C228.51 211.142 228.77 212.074 228.77 213.268V213.384ZM227.505 213.24C227.505 212.406 227.327 211.748 226.972 211.265C226.617 210.782 226.129 210.54 225.509 210.54C224.743 210.54 224.169 210.88 223.786 211.559V215.093C224.165 215.767 224.743 216.104 225.523 216.104C226.129 216.104 226.61 215.865 226.965 215.387C227.325 214.904 227.505 214.188 227.505 213.24ZM230.468 213.233C230.468 212.509 230.609 211.857 230.892 211.278C231.179 210.7 231.576 210.253 232.081 209.938C232.592 209.624 233.173 209.467 233.825 209.467C234.832 209.467 235.645 209.815 236.265 210.513C236.889 211.21 237.202 212.137 237.202 213.295V213.384C237.202 214.104 237.063 214.751 236.785 215.325C236.511 215.895 236.117 216.339 235.602 216.658C235.092 216.977 234.504 217.137 233.838 217.137C232.836 217.137 232.022 216.788 231.398 216.091C230.778 215.394 230.468 214.471 230.468 213.322V213.233ZM231.74 213.384C231.74 214.204 231.929 214.863 232.307 215.359C232.69 215.856 233.2 216.104 233.838 216.104C234.481 216.104 234.991 215.854 235.37 215.353C235.748 214.847 235.937 214.14 235.937 213.233C235.937 212.422 235.743 211.766 235.356 211.265C234.973 210.759 234.463 210.506 233.825 210.506C233.2 210.506 232.697 210.754 232.314 211.251C231.931 211.748 231.74 212.459 231.74 213.384ZM239.324 217V209.604H242.208C243.193 209.604 243.947 209.777 244.471 210.123C245 210.465 245.264 210.968 245.264 211.634C245.264 211.976 245.162 212.285 244.957 212.563C244.751 212.837 244.448 213.047 244.047 213.192C244.494 213.297 244.852 213.502 245.121 213.808C245.394 214.113 245.531 214.478 245.531 214.901C245.531 215.58 245.28 216.1 244.779 216.46C244.282 216.82 243.578 217 242.666 217H239.324ZM240.588 213.753V215.981H242.68C243.209 215.981 243.603 215.883 243.863 215.688C244.127 215.492 244.259 215.216 244.259 214.86C244.259 214.122 243.717 213.753 242.632 213.753H240.588ZM240.588 212.741H242.222C243.407 212.741 243.999 212.395 243.999 211.702C243.999 211.009 243.439 210.652 242.318 210.629H240.588V212.741ZM1.07324 241V233.604H3.95801C4.94238 233.604 5.69661 233.777 6.2207 234.123C6.74935 234.465 7.01367 234.968 7.01367 235.634C7.01367 235.976 6.91113 236.285 6.70605 236.563C6.50098 236.837 6.19792 237.047 5.79688 237.192C6.24349 237.297 6.60124 237.502 6.87012 237.808C7.14355 238.113 7.28027 238.478 7.28027 238.901C7.28027 239.58 7.02962 240.1 6.52832 240.46C6.03158 240.82 5.32747 241 4.41602 241H1.07324ZM2.33789 237.753V239.981H4.42969C4.95833 239.981 5.35254 239.883 5.6123 239.688C5.87663 239.492 6.00879 239.216 6.00879 238.86C6.00879 238.122 5.46647 237.753 4.38184 237.753H2.33789ZM2.33789 236.741H3.97168C5.15658 236.741 5.74902 236.395 5.74902 235.702C5.74902 235.009 5.18848 234.652 4.06738 234.629H2.33789V236.741ZM15.4386 233.604V241H14.1671V234.649H11.6514L11.5011 237.418C11.419 238.689 11.2048 239.599 10.8585 240.146C10.5167 240.692 9.97208 240.977 9.22469 241H8.71883V239.886L9.08113 239.858C9.49129 239.813 9.78523 239.576 9.96297 239.147C10.1407 238.719 10.2546 237.926 10.3048 236.769L10.4415 233.604H15.4386ZM20.9582 241.137C19.9556 241.137 19.1398 240.809 18.5109 240.152C17.882 239.492 17.5675 238.61 17.5675 237.507V237.274C17.5675 236.541 17.7065 235.887 17.9845 235.312C18.2671 234.734 18.659 234.283 19.1603 233.959C19.6662 233.631 20.213 233.467 20.8009 233.467C21.7625 233.467 22.5099 233.784 23.0431 234.417C23.5763 235.05 23.8429 235.957 23.8429 237.138V237.664H18.8322C18.8504 238.393 19.0623 238.983 19.4679 239.435C19.8781 239.881 20.3976 240.104 21.0265 240.104C21.4731 240.104 21.8514 240.013 22.1613 239.831C22.4712 239.649 22.7423 239.407 22.9748 239.106L23.7472 239.708C23.1274 240.66 22.1977 241.137 20.9582 241.137ZM20.8009 234.506C20.2905 234.506 19.8621 234.693 19.5158 235.066C19.1694 235.436 18.9552 235.955 18.8732 236.625H22.5783V236.529C22.5418 235.887 22.3686 235.39 22.0588 235.039C21.7489 234.684 21.3296 234.506 20.8009 234.506ZM31.3176 241H30.0461V238.32C29.4901 238.466 28.9205 238.539 28.3371 238.539C27.412 238.539 26.7056 238.302 26.218 237.828C25.7349 237.354 25.4888 236.68 25.4797 235.805V233.597H26.7444V235.846C26.7672 236.949 27.2981 237.5 28.3371 237.5C28.9205 237.5 29.4901 237.427 30.0461 237.281V233.604H31.3176V241ZM36.8372 241.137C35.8346 241.137 35.0189 240.809 34.39 240.152C33.7611 239.492 33.4466 238.61 33.4466 237.507V237.274C33.4466 236.541 33.5856 235.887 33.8636 235.312C34.1461 234.734 34.5381 234.283 35.0394 233.959C35.5452 233.631 36.0921 233.467 36.68 233.467C37.6416 233.467 38.389 233.784 38.9222 234.417C39.4554 235.05 39.722 235.957 39.722 237.138V237.664H34.7113C34.7295 238.393 34.9414 238.983 35.347 239.435C35.7571 239.881 36.2767 240.104 36.9056 240.104C37.3522 240.104 37.7305 240.013 38.0404 239.831C38.3502 239.649 38.6214 239.407 38.8538 239.106L39.6263 239.708C39.0065 240.66 38.0768 241.137 36.8372 241.137ZM36.68 234.506C36.1696 234.506 35.7412 234.693 35.3948 235.066C35.0485 235.436 34.8343 235.955 34.7523 236.625H38.4573V236.529C38.4209 235.887 38.2477 235.39 37.9378 235.039C37.6279 234.684 37.2086 234.506 36.68 234.506ZM47.0258 234.629H44.5443V241H43.2797V234.629H40.8461V233.604H47.0258V234.629ZM56.6363 235.627C56.6363 235.281 56.5041 235.007 56.2398 234.807C55.9755 234.602 55.6132 234.499 55.1529 234.499C54.7063 234.499 54.3326 234.615 54.0318 234.848C53.7356 235.08 53.5875 235.354 53.5875 235.668H52.3296C52.3296 235.025 52.5985 234.499 53.1363 234.089C53.674 233.679 54.3462 233.474 55.1529 233.474C56.0188 233.474 56.6933 233.66 57.1763 234.034C57.6594 234.403 57.9009 234.932 57.9009 235.62C57.9009 235.953 57.8007 236.258 57.6002 236.536C57.3996 236.814 57.1148 237.035 56.7457 237.199C57.607 237.491 58.0377 238.065 58.0377 238.922C58.0377 239.601 57.7756 240.139 57.2515 240.535C56.7274 240.932 56.0279 241.13 55.1529 241.13C54.3007 241.13 53.5966 240.923 53.0406 240.508C52.4892 240.089 52.2134 239.523 52.2134 238.812H53.4712C53.4712 239.173 53.6308 239.482 53.9498 239.742C54.2733 239.997 54.6744 240.125 55.1529 240.125C55.636 240.125 56.0256 240.013 56.3218 239.79C56.6181 239.567 56.7662 239.277 56.7662 238.922C56.7662 238.507 56.6408 238.211 56.3902 238.033C56.1441 237.851 55.759 237.76 55.2349 237.76H53.9703V236.693H55.3443C56.2056 236.671 56.6363 236.315 56.6363 235.627ZM64.6647 241C64.5918 240.854 64.5325 240.594 64.487 240.221C63.8991 240.831 63.1972 241.137 62.3815 241.137C61.6523 241.137 61.053 240.932 60.5836 240.521C60.1188 240.107 59.8864 239.583 59.8864 238.949C59.8864 238.179 60.178 237.582 60.7614 237.158C61.3493 236.73 62.1741 236.516 63.236 236.516H64.4664V235.935C64.4664 235.493 64.3343 235.142 64.07 234.882C63.8056 234.618 63.416 234.485 62.901 234.485C62.4498 234.485 62.0716 234.599 61.7663 234.827C61.4609 235.055 61.3082 235.331 61.3082 235.654H60.0368C60.0368 235.285 60.1666 234.93 60.4264 234.588C60.6907 234.242 61.0462 233.968 61.4928 233.768C61.944 233.567 62.4385 233.467 62.9762 233.467C63.8284 233.467 64.4961 233.681 64.9791 234.109C65.4622 234.533 65.7129 235.119 65.7311 235.866V239.271C65.7311 239.95 65.8177 240.49 65.9909 240.891V241H64.6647ZM62.5661 240.036C62.9625 240.036 63.3385 239.934 63.694 239.729C64.0495 239.523 64.3069 239.257 64.4664 238.929V237.411H63.4752C61.9258 237.411 61.151 237.865 61.151 238.771C61.151 239.168 61.2832 239.478 61.5475 239.701C61.8118 239.924 62.1513 240.036 62.5661 240.036ZM74.993 240.104C75.4441 240.104 75.8383 239.968 76.1756 239.694C76.5128 239.421 76.6997 239.079 76.7361 238.669H77.9324C77.9096 239.093 77.7638 239.496 77.4949 239.879C77.226 240.262 76.866 240.567 76.4148 240.795C75.9682 241.023 75.4943 241.137 74.993 241.137C73.9858 241.137 73.1837 240.802 72.5867 240.132C71.9943 239.457 71.698 238.537 71.698 237.37V237.158C71.698 236.438 71.8302 235.798 72.0945 235.237C72.3589 234.677 72.7371 234.242 73.2293 233.932C73.726 233.622 74.3117 233.467 74.9861 233.467C75.8156 233.467 76.5037 233.715 77.0506 234.212C77.602 234.709 77.896 235.354 77.9324 236.146H76.7361C76.6997 235.668 76.5174 235.276 76.1893 234.971C75.8657 234.661 75.4646 234.506 74.9861 234.506C74.3436 234.506 73.8445 234.738 73.4891 235.203C73.1381 235.663 72.9627 236.331 72.9627 237.206V237.445C72.9627 238.298 73.1381 238.954 73.4891 239.414C73.84 239.874 74.3413 240.104 74.993 240.104ZM79.4393 237.233C79.4393 236.509 79.5806 235.857 79.8632 235.278C80.1503 234.7 80.5468 234.253 81.0526 233.938C81.563 233.624 82.1441 233.467 82.7958 233.467C83.8029 233.467 84.6164 233.815 85.2362 234.513C85.8606 235.21 86.1727 236.137 86.1727 237.295V237.384C86.1727 238.104 86.0337 238.751 85.7557 239.325C85.4823 239.895 85.0881 240.339 84.5731 240.658C84.0627 240.977 83.4748 241.137 82.8095 241.137C81.8069 241.137 80.9934 240.788 80.369 240.091C79.7492 239.394 79.4393 238.471 79.4393 237.322V237.233ZM80.7108 237.384C80.7108 238.204 80.9 238.863 81.2782 239.359C81.661 239.856 82.1714 240.104 82.8095 240.104C83.452 240.104 83.9625 239.854 84.3407 239.353C84.719 238.847 84.9081 238.14 84.9081 237.233C84.9081 236.422 84.7144 235.766 84.327 235.265C83.9442 234.759 83.4338 234.506 82.7958 234.506C82.1714 234.506 81.6679 234.754 81.285 235.251C80.9022 235.748 80.7108 236.459 80.7108 237.384ZM91.4257 234.027C92.3554 234.027 93.0983 234.34 93.6543 234.964C94.2148 235.584 94.4951 236.402 94.4951 237.418V237.534C94.4951 238.231 94.3606 238.856 94.0918 239.407C93.8229 239.954 93.4355 240.38 92.9296 240.686C92.4283 240.986 91.8496 241.137 91.1933 241.137C90.1998 241.137 89.4 240.806 88.7939 240.146C88.1878 239.48 87.8847 238.589 87.8847 237.473V236.857C87.8847 235.303 88.1718 234.068 88.7461 233.152C89.3248 232.236 90.177 231.678 91.3027 231.478C91.9407 231.364 92.3714 231.225 92.5947 231.061C92.818 230.896 92.9296 230.671 92.9296 230.384H93.9687C93.9687 230.953 93.8388 231.398 93.5791 231.717C93.3239 232.036 92.9137 232.261 92.3486 232.394L91.4052 232.605C90.6533 232.783 90.0882 233.084 89.7099 233.508C89.3362 233.927 89.0924 234.488 88.9785 235.189C89.6484 234.415 90.4642 234.027 91.4257 234.027ZM91.1796 235.066C90.5599 235.066 90.0677 235.276 89.7031 235.695C89.3385 236.11 89.1562 236.687 89.1562 237.425V237.534C89.1562 238.327 89.3385 238.956 89.7031 239.421C90.0722 239.881 90.569 240.111 91.1933 240.111C91.8222 240.111 92.319 239.879 92.6836 239.414C93.0481 238.949 93.2304 238.27 93.2304 237.377C93.2304 236.68 93.0459 236.121 92.6767 235.702C92.3121 235.278 91.8131 235.066 91.1796 235.066ZM96.002 237.233C96.002 236.509 96.1433 235.857 96.4258 235.278C96.7129 234.7 97.1094 234.253 97.6153 233.938C98.1257 233.624 98.7067 233.467 99.3584 233.467C100.366 233.467 101.179 233.815 101.799 234.513C102.423 235.21 102.735 236.137 102.735 237.295V237.384C102.735 238.104 102.596 238.751 102.318 239.325C102.045 239.895 101.651 240.339 101.136 240.658C100.625 240.977 100.037 241.137 99.3721 241.137C98.3695 241.137 97.556 240.788 96.9317 240.091C96.3119 239.394 96.002 238.471 96.002 237.322V237.233ZM97.2735 237.384C97.2735 238.204 97.4626 238.863 97.8409 239.359C98.2237 239.856 98.7341 240.104 99.3721 240.104C100.015 240.104 100.525 239.854 100.903 239.353C101.282 238.847 101.471 238.14 101.471 237.233C101.471 236.422 101.277 235.766 100.89 235.265C100.507 234.759 99.9965 234.506 99.3584 234.506C98.7341 234.506 98.2305 234.754 97.8477 235.251C97.4649 235.748 97.2735 236.459 97.2735 237.384ZM109.526 233.604H110.791V241H109.526V235.606L106.115 241H104.851V233.604H106.115V239.004L109.526 233.604ZM109.868 230.91C109.868 231.462 109.679 231.906 109.301 232.243C108.927 232.576 108.435 232.742 107.824 232.742C107.214 232.742 106.719 232.574 106.341 232.236C105.963 231.899 105.774 231.457 105.774 230.91H106.806C106.806 231.229 106.892 231.48 107.066 231.662C107.239 231.84 107.492 231.929 107.824 231.929C108.143 231.929 108.392 231.84 108.569 231.662C108.752 231.484 108.843 231.234 108.843 230.91H109.868ZM113.269 240.337C113.269 240.118 113.333 239.936 113.46 239.79C113.592 239.644 113.788 239.571 114.048 239.571C114.308 239.571 114.504 239.644 114.636 239.79C114.773 239.936 114.841 240.118 114.841 240.337C114.841 240.547 114.773 240.722 114.636 240.863C114.504 241.005 114.308 241.075 114.048 241.075C113.788 241.075 113.592 241.005 113.46 240.863C113.333 240.722 113.269 240.547 113.269 240.337Z" fill="#757575"/>
<rect width="270" height="120" rx="4" fill="#F5F4FA"/>
<g clip-path="url(#clip0_1_339)">
<path d="M168.461 58.4715C168.458 39.9819 153.466 24.9963 134.975 25C116.486 25.0037 101.5 39.9963 101.504 58.4859C101.507 73.0502 110.925 85.9413 124.8 90.3713C124.932 90.413 125.07 90.4343 125.208 90.4338C125.472 90.4333 125.73 90.3628 125.957 90.2287C126.253 90.0541 126.473 89.7764 126.577 89.449L135.032 62.6521C137.343 62.6404 139.207 60.7568 139.194 58.4459C139.183 56.1345 137.3 54.2706 134.988 54.2824C134.367 54.285 133.753 54.4282 133.194 54.7011L122.025 43.5302C121.471 42.9951 120.588 43.0106 120.053 43.5644C119.53 44.1054 119.53 44.962 120.053 45.503L131.216 56.6792C130.36 58.4277 130.849 60.5383 132.39 61.7303L124.334 87.2647C108.414 81.4002 100.262 63.7405 106.126 47.8203C111.991 31.9 129.65 23.7482 145.571 29.6127C161.491 35.4771 169.643 53.1374 163.778 69.0571C160.913 76.8351 155.026 83.1252 147.455 86.4989L146.584 82.3989C146.425 81.6454 145.684 81.1636 144.931 81.3233C144.693 81.3741 144.473 81.4857 144.291 81.6475L135.898 89.1409C135.322 89.653 135.271 90.5347 135.783 91.1105C135.95 91.2974 136.164 91.4362 136.403 91.5126L147.119 94.9327C147.852 95.1682 148.638 94.765 148.873 94.0312C148.948 93.7994 148.96 93.5527 148.91 93.3145L148.055 89.2915C160.445 84.0678 168.49 71.918 168.461 58.4715V58.4715ZM134.983 57.0766C135.753 57.0766 136.378 57.7014 136.378 58.4715C136.378 59.2422 135.753 59.8665 134.983 59.8665C134.212 59.8665 133.588 59.2422 133.588 58.4715C133.588 57.7014 134.212 57.0766 134.983 57.0766ZM139.577 89.5916L144.355 85.3298L145.674 91.543L139.577 89.5916Z" fill="#212121"/>
<path d="M133.588 31.9673V34.7572C133.588 35.5278 134.212 36.1522 134.983 36.1522C135.753 36.1522 136.378 35.5278 136.378 34.7572V31.9673C136.378 31.1972 135.753 30.5723 134.983 30.5723C134.212 30.5723 133.588 31.1972 133.588 31.9673Z" fill="#2196F3"/>
<path d="M108.479 57.0765C107.708 57.0765 107.084 57.7014 107.084 58.4715C107.084 59.2421 107.708 59.8665 108.479 59.8665H111.269C112.039 59.8665 112.664 59.2421 112.664 58.4715C112.664 57.7014 112.039 57.0765 111.269 57.0765H108.479Z" fill="#2196F3"/>
<path d="M161.487 59.8665C162.257 59.8665 162.882 59.2421 162.882 58.4715C162.882 57.7014 162.257 57.0765 161.487 57.0765H158.697C157.927 57.0765 157.302 57.7014 157.302 58.4715C157.302 59.2421 157.927 59.8665 158.697 59.8665H161.487Z" fill="#2196F3"/>
</g>
<defs>
<clipPath id="clip0_1_339">
<rect width="70" height="70" fill="white" transform="translate(100 25)"/>
</clipPath>
</defs>
</svg>
